<svg width="16" height="17" viewBox="0 0 16 17" fill="none" xmlns="http://www.w3.org/2000/svg">
<path fill-rule="evenodd" clip-rule="evenodd" d="M5.33301 9.50065C5.33301 9.13246 5.63148 8.83398 5.99967 8.83398H9.99967C10.3679 8.83398 10.6663 9.13246 10.6663 9.50065C10.6663 9.86884 10.3679 10.1673 9.99967 10.1673H5.99967C5.63148 10.1673 5.33301 9.86884 5.33301 9.50065Z" fill="#424551"/>
<path fill-rule="evenodd" clip-rule="evenodd" d="M5.33301 12.0007C5.33301 11.6325 5.63148 11.334 5.99967 11.334H7.99967C8.36786 11.334 8.66634 11.6325 8.66634 12.0007C8.66634 12.3688 8.36786 12.6673 7.99967 12.6673H5.99967C5.63148 12.6673 5.33301 12.3688 5.33301 12.0007Z" fill="#424551"/>
<path fill-rule="evenodd" clip-rule="evenodd" d="M6.02829 1.52925C6.15331 1.40422 6.32288 1.33398 6.49969 1.33398H10.9997C12.4725 1.33398 13.6664 2.52789 13.6664 4.00065L13.6664 13.0007C13.6664 14.4734 12.4725 15.6673 10.9997 15.6673H4.99967C3.52691 15.6673 2.333 14.4734 2.33301 13.0006L2.33302 5.50065C2.33302 5.32384 2.40326 5.15427 2.52829 5.02925L6.02829 1.52925ZM6.333 3.11015V5.33398H4.10917L6.333 3.11015ZM3.66636 6.66732L3.66634 13.0006C3.66634 13.737 4.26329 14.334 4.99967 14.334H10.9997C11.7361 14.334 12.333 13.737 12.333 13.0007L12.333 4.00065C12.333 3.26427 11.7361 2.66732 10.9997 2.66732H7.66634V6.00065C7.66634 6.36884 7.36786 6.66732 6.99967 6.66732H3.66636Z" fill="#424551"/>
</svg>
