<svg width="16" height="16" viewBox="0 0 16 16" fill="none" xmlns="http://www.w3.org/2000/svg">
<g clip-path="url(#clip0_2664_471)">
<path fill-rule="evenodd" clip-rule="evenodd" d="M10.7122 6.94002C11.4104 7.47368 11.4104 8.52507 10.7122 9.05873L7.6589 11.3923C6.7815 12.0629 5.5159 11.4373 5.5159 10.333V5.66575C5.5159 4.56144 6.7815 3.93581 7.6589 4.6064L10.7122 6.94002ZM9.90253 7.99938L6.84923 5.66575L6.84924 10.333L9.90253 7.99938Z" fill="#424551"/>
<path fill-rule="evenodd" clip-rule="evenodd" d="M8.00033 1.99935C4.68662 1.99935 2.00033 4.68564 2.00033 7.99935C2.00033 11.3131 4.68662 13.9993 8.00033 13.9993C11.314 13.9993 14.0003 11.3131 14.0003 7.99935C14.0003 4.68564 11.314 1.99935 8.00033 1.99935ZM0.666992 7.99935C0.666992 3.94926 3.95024 0.666016 8.00033 0.666016C12.0504 0.666016 15.3337 3.94926 15.3337 7.99935C15.3337 12.0494 12.0504 15.3327 8.00033 15.3327C3.95024 15.3327 0.666992 12.0494 0.666992 7.99935Z" fill="#424551"/>
</g>
<defs>
<clipPath id="clip0_2664_471">
<rect width="16" height="16" fill="white"/>
</clipPath>
</defs>
</svg>
